<mxfile host="app.diagrams.net" modified="2023-05-04T10:25:03.195Z" agent="Mozilla/5.0 (Windows NT 10.0; Win64; x64) AppleWebKit/537.36 (KHTML, like Gecko) Chrome/112.0.0.0 Safari/537.36" version="21.2.7" etag="USSHoxkX5utCmEmQMgaa" type="github">
  <diagram name="Page-1" id="vNYo1Eu4IgICf-uz21Lf">
    <mxGraphModel>
      <root>
        <mxCell id="0" />
        <mxCell id="1" parent="0" />
        <mxCell id="2" value="User Interface" style="whiteSpace=wrap;strokeWidth=2;" vertex="1" parent="1">
          <mxGeometry x="453" width="117" height="34" as="geometry" />
        </mxCell>
        <mxCell id="3" value="Battle Creation" style="whiteSpace=wrap;strokeWidth=2;" vertex="1" parent="1">
          <mxGeometry x="103" y="84" width="125" height="34" as="geometry" />
        </mxCell>
        <mxCell id="4" value="Battle Deployment" style="whiteSpace=wrap;strokeWidth=2;" vertex="1" parent="1">
          <mxGeometry x="436" y="84" width="150" height="34" as="geometry" />
        </mxCell>
        <mxCell id="5" value="Battle Settings" style="whiteSpace=wrap;strokeWidth=2;" vertex="1" parent="1">
          <mxGeometry y="168" width="120" height="34" as="geometry" />
        </mxCell>
        <mxCell id="6" value="Smart Contract Templates" style="whiteSpace=wrap;strokeWidth=2;" vertex="1" parent="1">
          <mxGeometry x="170" y="168" width="201" height="34" as="geometry" />
        </mxCell>
        <mxCell id="7" value="Smart Contract System" style="whiteSpace=wrap;strokeWidth=2;" vertex="1" parent="1">
          <mxGeometry x="422" y="168" width="179" height="34" as="geometry" />
        </mxCell>
        <mxCell id="8" value="Automatic and Transparent Execution" style="whiteSpace=wrap;strokeWidth=2;" vertex="1" parent="1">
          <mxGeometry x="369" y="252" width="285" height="34" as="geometry" />
        </mxCell>
        <mxCell id="9" value="Real-time Monitoring" style="whiteSpace=wrap;strokeWidth=2;" vertex="1" parent="1">
          <mxGeometry x="636" y="84" width="165" height="34" as="geometry" />
        </mxCell>
        <mxCell id="10" value="" style="curved=1;startArrow=none;endArrow=block;exitX=-0.0026620392106537125;exitY=0.7113063501913022;entryX=0.5006874542236328;entryY=0.0026737661922679227;" edge="1" parent="1" source="2" target="3">
          <mxGeometry relative="1" as="geometry">
            <Array as="points">
              <mxPoint x="166" y="59" />
            </Array>
          </mxGeometry>
        </mxCell>
        <mxCell id="11" value="" style="curved=1;startArrow=none;endArrow=block;exitX=0.49919513148120326;exitY=1.002673766192268;entryX=0.5027055358886718;entryY=0.0026737661922679227;" edge="1" parent="1" source="2" target="4">
          <mxGeometry relative="1" as="geometry">
            <Array as="points" />
          </mxGeometry>
        </mxCell>
        <mxCell id="12" value="" style="curved=1;startArrow=none;endArrow=block;exitX=0.15879941828674077;exitY=1.0053475323845358;entryX=0.5014204343159994;entryY=0.005347532384535845;" edge="1" parent="1" source="3" target="5">
          <mxGeometry relative="1" as="geometry">
            <Array as="points">
              <mxPoint x="60" y="143" />
            </Array>
          </mxGeometry>
        </mxCell>
        <mxCell id="13" value="" style="curved=1;startArrow=none;endArrow=block;exitX=0.8425754901605248;exitY=1.0053475323845358;entryX=0.5024945842685984;entryY=0.005347532384535845;" edge="1" parent="1" source="3" target="6">
          <mxGeometry relative="1" as="geometry">
            <Array as="points">
              <mxPoint x="271" y="143" />
            </Array>
          </mxGeometry>
        </mxCell>
        <mxCell id="14" value="" style="curved=1;startArrow=none;endArrow=block;exitX=0.5027055358886718;exitY=1.0053475323845358;entryX=0.4994739127558703;entryY=0.005347532384535845;" edge="1" parent="1" source="4" target="7">
          <mxGeometry relative="1" as="geometry">
            <Array as="points" />
          </mxGeometry>
        </mxCell>
        <mxCell id="15" value="" style="curved=1;startArrow=none;endArrow=block;exitX=0.4994739127558703;exitY=1.0080212985768038;entryX=0.4996695802922834;entryY=0.008021298576803768;" edge="1" parent="1" source="7" target="8">
          <mxGeometry relative="1" as="geometry">
            <Array as="points" />
          </mxGeometry>
        </mxCell>
        <mxCell id="16" value="" style="curved=1;startArrow=none;endArrow=block;exitX=1.0010523021730602;exitY=0.8511989609455497;entryX=0.502723555131392;entryY=0.0026737661922679227;" edge="1" parent="1" source="2" target="9">
          <mxGeometry relative="1" as="geometry">
            <Array as="points">
              <mxPoint x="719" y="59" />
            </Array>
          </mxGeometry>
        </mxCell>
      </root>
    </mxGraphModel>
  </diagram>
</mxfile>
